<?xml version="1.0" encoding="UTF-8"?>
<svg xmlns="http://www.w3.org/2000/svg" xmlns:xlink="http://www.w3.org/1999/xlink" width="30cm" height="10cm" viewBox="0 0 850.39 283.46">
  <defs>
    <linearGradient id="linear-gradient" x1="794.19" y1="73.69" x2="794.19" y2="179.79" gradientUnits="userSpaceOnUse">
      <stop offset="0" stop-color="#0069ff"></stop>
      <stop offset="1" stop-color="aqua"></stop>
    </linearGradient>
    <linearGradient id="linear-gradient-2" x1="730.94" x2="730.94" xlink:href="#linear-gradient"></linearGradient>
    <linearGradient id="linear-gradient-3" x1="643.24" y1="73.69" x2="643.24" y2="179.79" xlink:href="#linear-gradient"></linearGradient>
    <linearGradient id="linear-gradient-4" x1="305.62" x2="305.62" xlink:href="#linear-gradient"></linearGradient>
    <linearGradient id="linear-gradient-5" x1="217.12" x2="217.12" xlink:href="#linear-gradient"></linearGradient>
    <linearGradient id="linear-gradient-6" x1="128.68" x2="128.68" xlink:href="#linear-gradient"></linearGradient>
    <linearGradient id="linear-gradient-7" x1="55.04" y1="73.69" x2="55.04" y2="179.79" xlink:href="#linear-gradient"></linearGradient>
  </defs>
  <g id="R">
    <path d="M825.74,162.72c1.48,0,2.92.38,4.33,1.14,1.41.76,2.5,1.84,3.29,3.25.79,1.41,1.18,2.88,1.18,4.42s-.39,2.97-1.16,4.37c-.77,1.4-1.86,2.49-3.25,3.26-1.4.77-2.86,1.16-4.38,1.16s-2.98-.39-4.38-1.16c-1.4-.77-2.48-1.86-3.26-3.26-.78-1.4-1.17-2.86-1.17-4.37s.39-3,1.18-4.42c.79-1.41,1.89-2.5,3.3-3.25,1.41-.76,2.85-1.14,4.33-1.14ZM825.74,164.18c-1.24,0-2.44.32-3.61.95-1.17.63-2.09,1.54-2.75,2.72-.66,1.18-.99,2.41-.99,3.68s.33,2.48.97,3.65c.65,1.16,1.56,2.07,2.72,2.72s2.38.97,3.65.97,2.49-.33,3.65-.97c1.17-.65,2.07-1.55,2.72-2.72.65-1.16.97-2.38.97-3.65s-.33-2.5-.99-3.68c-.66-1.18-1.57-2.08-2.75-2.72-1.17-.63-2.38-.95-3.6-.95ZM821.88,176.4v-9.47h3.25c1.11,0,1.92.09,2.42.26.5.17.89.48,1.19.92s.44.9.44,1.39c0,.69-.25,1.29-.74,1.81-.49.51-1.15.8-1.97.86.33.14.6.31.8.5.38.37.85,1,1.4,1.88l1.16,1.85h-1.87l-.84-1.49c-.66-1.17-1.19-1.91-1.6-2.21-.28-.22-.69-.33-1.22-.33h-.9v4.02h-1.53ZM823.41,171.07h1.85c.89,0,1.49-.13,1.81-.4.32-.26.48-.61.48-1.05,0-.28-.08-.53-.23-.75-.16-.22-.37-.39-.65-.5-.28-.11-.79-.16-1.53-.16h-1.74v2.86Z" fill="#000" stroke-width="0"></path>
  </g>
  <g id="Guitars">
    <path id="S" d="M579.37,257.36c-.36-.03-.73-.05-1.09-.08-2.41-.17-4.75-.62-6.97-1.58-1.53-.66-2.92-1.54-4.06-2.76-1.42-1.52-2.17-3.31-2.26-5.38,0-.09,0-.17,0-.28h6.36c.01.11.03.21.04.32.11.81.52,1.46,1.13,2,.65.58,1.42.97,2.24,1.26,1.13.41,2.31.62,3.51.73,1.86.18,3.68-.01,5.47-.48.81-.21,1.58-.53,2.27-1.01,1.07-.75,1.65-1.75,1.64-3.06,0-.88-.37-1.59-1.08-2.12-.62-.46-1.34-.72-2.09-.91-1.13-.29-2.29-.42-3.46-.47-1.19-.05-2.38-.08-3.56-.14-1.95-.11-3.89-.33-5.77-.9-.99-.3-1.94-.7-2.81-1.27-1.52-1-2.51-2.37-2.94-4.12-.43-1.74-.44-3.5,0-5.24.54-2.12,1.79-3.74,3.64-4.93,1.33-.85,2.79-1.39,4.32-1.75,1.44-.34,2.9-.53,4.38-.6,2.96-.15,5.82.28,8.57,1.38,1.64.65,3.1,1.57,4.29,2.87,1.37,1.49,2.13,3.24,2.24,5.26,0,.15.02.3.03.45-.24.08-5.88.11-6.36.03-.04-.22-.06-.45-.12-.67-.18-.75-.63-1.35-1.22-1.84-.74-.62-1.61-1-2.53-1.28-1.08-.32-2.18-.51-3.31-.55-1.76-.06-3.48.16-5.13.76-.62.23-1.19.54-1.67,1-.9.85-1.21,1.89-.97,3.09.1.53.4.95.82,1.28.46.38,1,.61,1.56.78.8.25,1.62.4,2.45.46,1.26.09,2.53.15,3.79.2,2.22.08,4.43.28,6.59.86,1.16.32,2.27.75,3.29,1.4,1.77,1.12,2.83,2.72,3.24,4.74.08.4.1.8.15,1.21.01.12.04.24.06.35v1.38c-.03.27-.05.54-.08.81-.32,2.32-1.35,4.24-3.21,5.71-1.27,1-2.71,1.65-4.25,2.11-1.93.58-3.92.84-5.93.93-.13,0-.26.03-.39.05h-.8Z" fill="#000" stroke-width="0"></path>
    <path id="R-2" d="M530.77,257.28v-31.55c.11,0,.21-.02.3-.02,6.21,0,12.42-.04,18.63.02,2.53.02,4.79.87,6.59,2.71,1.14,1.16,1.86,2.56,2.22,4.13.46,1.98.44,3.94-.22,5.87-.91,2.64-2.75,4.38-5.39,5.31-.73.26-1.49.42-2.27.51-.04,0-.08.02-.13.03,0,.04,0,.08.02.1.72.8,1.25,1.73,1.82,2.63,2.09,3.33,4.18,6.65,6.27,9.98.05.08.09.17.16.28h-7.19c-.5-.79-1-1.6-1.51-2.4-2.14-3.41-4.28-6.82-6.41-10.24-.14-.22-.29-.31-.55-.31-1.85.01-3.71,0-5.56,0-.12,0-.24,0-.39,0v12.95h-6.38ZM537.17,238.66c.15,0,.27,0,.39,0,1.61,0,3.22,0,4.83,0,2.19,0,4.37,0,6.56,0,.17,0,.33,0,.5,0,1.56-.07,2.69-1.03,2.91-2.56.09-.65.09-1.32.04-1.97-.11-1.31-.92-2.28-2.14-2.6-.4-.1-.83-.14-1.25-.14-2.1,0-4.2,0-6.29,0-1.71,0-3.42,0-5.13-.01-.13,0-.26,0-.41,0v7.28Z" fill="#000" stroke-width="0"></path>
    <path id="A" d="M503.12,225.72h8.95c4.36,10.51,8.72,21.02,13.1,31.57h-6.9c-.87-2.1-1.74-4.19-2.62-6.29h-16.26c-.87,2.09-1.74,4.19-2.62,6.3h-6.77c4.38-10.54,8.74-21.06,13.1-31.57ZM513.25,245.28c-.01-.06-.01-.1-.03-.14-1.89-4.54-3.77-9.09-5.66-13.63,0,0-.02,0-.03,0,0,0-.02,0-.05,0-1.88,4.54-3.76,9.08-5.64,13.63-.01.03-.02.06-.02.1,0,0,0,.02.01.03,0,0,.01.02.02.02h11.4Z" fill="#000" stroke-width="0"></path>
    <path id="T" d="M478.85,231.39v25.89h-6.41v-25.87c-.15,0-.26-.02-.38-.02-2.93,0-5.86,0-8.8-.01-.54,0-1.09,0-1.63,0h-.38c-.01-1.89,0-3.76,0-5.65h28.72c.08.22.1,5.1.03,5.65-1.84,0-3.69,0-5.55,0-1.85,0-3.7-.02-5.59.02Z" fill="#000" stroke-width="0"></path>
    <path id="I" d="M442.83,251.63h2.1c.08-.26.11-19.57.03-20.21-.35-.04-.72-.01-1.08-.02-.35,0-.7,0-1.07,0v-5.63c.24-.08,9.89-.11,10.68-.04.07.23.11,4.95.03,5.66-.69.03-1.4,0-2.12.02v20.21c.7.03,1.4,0,2.12.02v5.65h-10.67c-.07-.23-.1-5.08-.03-5.66Z" fill="#000" stroke-width="0"></path>
    <path id="U" d="M418.84,257.36c-.06-.02-.13-.04-.19-.05-5.04-.22-10.11-3.2-12.56-8.46-.78-1.68-1.27-3.43-1.45-5.27-.06-.65-.11-1.31-.11-1.97,0-5.17,0-10.34,0-15.51,0-.13,0-.26,0-.41h6.39v.39c0,5.07,0,10.14,0,15.21,0,1.37.15,2.71.6,4.01.79,2.26,2.18,4.02,4.35,5.15.95.49,1.96.77,3.01.88.26.03.53-.02.79-.07,2.93-.54,5.01-2.18,6.33-4.79.69-1.38,1.04-2.85,1.06-4.38.02-1.73.02-3.47.02-5.2,0-3.6,0-7.2,0-10.8v-.4h6.37c0,.12.01.25.01.37,0,2.63,0,5.27,0,7.9,0,2.64.02,5.29,0,7.93-.03,3.08-.79,5.97-2.46,8.59-2.21,3.47-5.37,5.63-9.41,6.53-.7.16-1.42.28-2.14.28-.06,0-.13.03-.19.05h-.4Z" fill="#000" stroke-width="0"></path>
    <path id="G" d="M379.58,219.77c.34.04.68.08,1.02.12,3.05.31,5.86,1.28,8.43,2.92,1.25.8,2.4,1.74,3.43,2.81.06.06.12.13.18.19.01.02.02.04.04.09-1.53,1.4-3.06,2.8-4.62,4.23-2.78-2.88-6.19-4.26-10.21-4.04-2.53.14-4.82,1-6.84,2.52-4.79,3.62-6.09,9.72-4.03,14.65,2.29,5.48,7.63,8.13,12.66,7.74,6.38-.5,10.3-5.22,11.25-9.31h-6.38c-.09-.25-.12-5.21-.05-5.83.24-.07,12.63-.08,13.04-.01.04.34.1.7.13,1.06.57,6.56-2.33,12.94-7.78,16.86-2.38,1.71-5.02,2.79-7.9,3.31-.66.12-1.34.16-2.01.24-.07,0-.15.03-.22.05h-2.07c-.05-.02-.1-.04-.15-.05-.45-.05-.91-.08-1.36-.14-2.29-.31-4.45-1-6.48-2.1-2.08-1.13-3.9-2.56-5.43-4.34-2.6-3.05-4.09-6.56-4.47-10.54-.02-.23-.08-.45-.12-.68,0-.64,0-1.27,0-1.91.04-.23.09-.45.12-.68.12-.77.18-1.55.36-2.31,1.22-5.39,4.29-9.49,9.06-12.33,2.32-1.38,4.87-2.15,7.57-2.42.34-.03.68-.08,1.02-.12.6,0,1.2,0,1.8,0Z" fill="#000" stroke-width="0"></path>
  </g>
  <g id="tree">
    <path d="M555.27,82.93c.64-.11,1.28-.2,1.92-.28,2.84-.36,5.71-.48,8.58-.43l15.03.25-7.58-12.98c-1.97-3.38-4.14-6.65-6.52-9.76-2.27-2.96-4.73-5.77-7.4-8.38-2.58-2.52-5.35-4.84-8.29-6.91-2.89-2.04-5.96-3.84-9.15-5.36-1.59-.76-3.22-1.45-4.87-2.07-1.66-.62-3.34-1.18-5.05-1.66-1.72-.49-3.46-.9-5.21-1.24-1.77-.35-3.56-.62-5.36-.83-4.09-.47-8.22-.58-12.33-.4-3.39.15-6.76.51-10.11,1.03-3.53.55-7.02,1.28-10.48,2.16-3.38-2.09-6.87-4.01-10.46-5.73-3.44-1.65-6.97-3.11-10.58-4.35-4.05-1.38-8.19-2.48-12.4-3.25-4.12-.75-8.3-1.19-12.49-1.29-4.18-.1-8.36.14-12.5.7-4.2.57-8.35,1.48-12.41,2.68-4.19,1.24-8.28,2.79-12.25,4.61-4.15,1.9-8.17,4.07-12.06,6.47l-11.91,7.35,12.04,7.14c7.27,4.31,13.45,9.19,18.63,14.63.97,1.02,1.91,2.07,2.82,3.13-20.07,12.8-35.59,31.59-44.37,53.71-8.78,22.12-10.37,46.45-4.54,69.52,21.33-5.73,43.62-9.39,65.55-11.61h-53.64c-3.13-14.54-3.28-29.62-.2-44.21,3.08-14.58,9.33-28.31,18.51-40.09,6.86-8.01,14.88-14.94,23.81-20.55.59.88,1.15,1.78,1.7,2.68-1.79,1.72-3.52,3.5-5.19,5.34-1.59,1.76-3.12,3.58-4.57,5.47-2.15,2.79-4.12,5.71-5.87,8.77-1.43,2.51-2.7,5.11-4.35,9.67-1.61,4.44-3.58,10.74-5.74,24.68l16.11-9.2c9.88-5.45,19.95-9.39,30.26-11.88,6.54-1.58,13.19-2.57,19.96-2.97-3.78,11.46-6.62,23.62-8.54,36.46-2.59,17.32-3.51,35.88-2.8,55.69l.29,8.16h56.96l-2.99-10.74c-4.04-14.5-6.69-29.76-7.93-45.81-1.03-13.35-1.09-27.23-.16-41.67,6.44,1.09,12.54,2.64,18.33,4.62,8.31,2.85,15.96,6.61,23.02,11.29l14.23,10.18c-.34-18.05-3.68-32-6.17-38.05-1.39-3.38-3.03-6.58-4.94-9.58.75-.5,1.52-.97,2.31-1.4.63-.34,1.28-.66,1.94-.96,3.41,3.06,6.58,6.31,9.57,9.8,9.18,11.78,15.43,25.51,18.51,40.09,3.08,14.59,2.93,29.67-.2,44.21h-47.99c20.19,2.42,40.27,6.33,59.9,11.61,9.84-38.98-1.72-80.27-30.37-108.47ZM530.2,86.83c7.04,8.15,11.37,18.69,12.98,31.62-15.34-10.17-33.27-16.32-53.77-18.44-3.27,36.11-.71,69.22,7.68,99.34h-37.64c-1.39-38.7,3.62-72.18,15.03-100.42-23.29-.92-45.45,4.41-66.46,16,2.85-12.16,10.95-24,24.3-35.52-7.29-14.87-18.81-26.97-34.55-36.3,29.65-18.3,59.42-17.6,89.29,2.12,35.51-10.2,61.79-.69,78.85,28.53-15.72-.26-27.63,4.1-35.72,13.08Z" fill="#000" stroke="#000" stroke-linecap="round" stroke-linejoin="round" stroke-width=".5"></path>
  </g>
  <g id="PB_black_outline">
    <polygon points="803.83 179.79 785.2 179.79 785.2 136.34 754.68 73.69 775.4 73.69 794.44 112.76 813.06 73.69 832.89 73.69 833.69 73.69 803.83 136.34 803.83 179.79" fill="#000" stroke="#000" stroke-linejoin="round" stroke-width="6"></polygon>
    <polygon points="730.94 121.26 706.03 179.79 685.79 179.79 730.94 73.69 776.09 179.79 755.85 179.79 730.94 121.26" fill="#000" stroke="#000" stroke-linejoin="round" stroke-width="6"></polygon>
    <path d="M672.61,122.5c6.46-9.6,7.11-21.99,1.67-32.21-5.44-10.22-16.07-16.6-27.65-16.6h-46.56l18.62,29.91v-11.29h27.94c7.01,0,12.7,5.69,12.7,12.7s-5.69,12.7-12.7,12.7h-27.94v43.46h-18.62v18.62h55.03c13.77,0,25.93-8.99,29.95-22.16,4.03-13.17-1.02-27.42-12.44-35.13ZM655.09,161.17h-17.78v-25.4h17.78c7.01,0,12.7,5.69,12.7,12.7s-5.69,12.7-12.7,12.7Z" fill="#000" stroke="#000" stroke-linejoin="round" stroke-width="6"></path>
    <polygon points="280.54 73.69 260.47 73.69 260.47 179.79 279.09 179.79 279.09 117.71 305.62 179.79 332.15 117.71 332.15 179.79 350.77 179.79 350.77 73.69 330.7 73.69 305.62 132.39 280.54 73.69" fill="#000" stroke="#000" stroke-linejoin="round" stroke-width="6"></polygon>
    <polygon points="180.43 179.79 180.43 73.69 199.06 73.69 199.06 161.17 235.18 161.17 235.18 149.88 253.8 179.79 180.43 179.79" fill="#000" stroke="#000" stroke-linejoin="round" stroke-width="6"></polygon>
    <polygon points="103.77 179.79 83.53 179.79 128.68 73.69 173.83 179.79 153.59 179.79 128.68 121.26 103.77 179.79" fill="#000" stroke="#000" stroke-linejoin="round" stroke-width="6"></polygon>
    <path d="M89.04,82.86c-5.87-5.87-13.84-9.17-22.15-9.17H11.86l18.62,29.91v-11.29h36.4c7.01,0,12.7,5.69,12.7,12.7s-5.69,12.7-12.7,12.7H30.49v62.08h18.62v-43.46h17.78c8.31,0,16.27-3.3,22.15-9.17,5.87-5.87,9.17-13.84,9.17-22.15s-3.3-16.27-9.17-22.15Z" fill="#000" stroke="#000" stroke-linejoin="round" stroke-width="6"></path>
  </g>
  <g id="PB_white_outline">
    <polygon points="803.83 179.79 785.2 179.79 785.2 136.34 754.68 73.69 775.4 73.69 794.44 112.76 813.06 73.69 832.89 73.69 833.69 73.69 803.83 136.34 803.83 179.79" fill="#000" stroke="#fff" stroke-linejoin="round" stroke-width="2"></polygon>
    <polygon points="730.94 121.26 706.03 179.79 685.79 179.79 730.94 73.69 776.09 179.79 755.85 179.79 730.94 121.26" fill="#000" stroke="#fff" stroke-linejoin="round" stroke-width="2"></polygon>
    <path d="M672.61,122.5c6.46-9.6,7.11-21.99,1.67-32.21-5.44-10.22-16.07-16.6-27.65-16.6h-46.56l18.62,29.91v-11.29h27.94c7.01,0,12.7,5.69,12.7,12.7s-5.69,12.7-12.7,12.7h-27.94v43.46h-18.62v18.62h55.03c13.77,0,25.93-8.99,29.95-22.16,4.03-13.17-1.02-27.42-12.44-35.13ZM655.09,161.17h-17.78v-25.4h17.78c7.01,0,12.7,5.69,12.7,12.7s-5.69,12.7-12.7,12.7Z" fill="#000" stroke="#fff" stroke-linejoin="round" stroke-width="2"></path>
    <polygon points="280.54 73.69 260.47 73.69 260.47 179.79 279.09 179.79 279.09 117.71 305.62 179.79 332.15 117.71 332.15 179.79 350.77 179.79 350.77 73.69 330.7 73.69 305.62 132.39 280.54 73.69" fill="#000" stroke="#fff" stroke-linejoin="round" stroke-width="2"></polygon>
    <polygon points="180.43 179.79 180.43 73.69 199.06 73.69 199.06 161.17 235.18 161.17 235.18 149.88 253.8 179.79 180.43 179.79" fill="#000" stroke="#fff" stroke-linejoin="round" stroke-width="2"></polygon>
    <polygon points="103.77 179.79 83.53 179.79 128.68 73.69 173.83 179.79 153.59 179.79 128.68 121.26 103.77 179.79" fill="#000" stroke="#fff" stroke-linejoin="round" stroke-width="2"></polygon>
    <path d="M89.04,82.86c-5.87-5.87-13.84-9.17-22.15-9.17H11.86l18.62,29.91v-11.29h36.4c7.01,0,12.7,5.69,12.7,12.7s-5.69,12.7-12.7,12.7H30.49v62.08h18.62v-43.46h17.78c8.31,0,16.27-3.3,22.15-9.17,5.87-5.87,9.17-13.84,9.17-22.15s-3.3-16.27-9.17-22.15Z" fill="#000" stroke="#fff" stroke-linejoin="round" stroke-width="2"></path>
  </g>
  <g id="Palm_Bay_copy">
    <polygon points="803.83 179.79 785.2 179.79 785.2 136.34 754.68 73.69 775.4 73.69 794.44 112.76 813.06 73.69 832.89 73.69 833.69 73.69 803.83 136.34 803.83 179.79" fill="url(#linear-gradient)" stroke-width="0"></polygon>
    <polygon points="730.94 121.26 706.03 179.79 685.79 179.79 730.94 73.69 776.09 179.79 755.85 179.79 730.94 121.26" fill="url(#linear-gradient-2)" stroke-width="0"></polygon>
    <path d="M672.61,122.5c6.46-9.6,7.11-21.99,1.67-32.21-5.44-10.22-16.07-16.6-27.65-16.6h-46.56l18.62,29.91v-11.29h27.94c7.01,0,12.7,5.69,12.7,12.7s-5.69,12.7-12.7,12.7h-27.94v43.46h-18.62v18.62h55.03c13.77,0,25.93-8.99,29.95-22.16,4.03-13.17-1.02-27.42-12.44-35.13ZM655.09,161.17h-17.78v-25.4h17.78c7.01,0,12.7,5.69,12.7,12.7s-5.69,12.7-12.7,12.7Z" fill="url(#linear-gradient-3)" stroke-width="0"></path>
    <polygon points="280.54 73.69 260.47 73.69 260.47 179.79 279.09 179.79 279.09 117.71 305.62 179.79 332.15 117.71 332.15 179.79 350.77 179.79 350.77 73.69 330.7 73.69 305.62 132.39 280.54 73.69" fill="url(#linear-gradient-4)" stroke-width="0"></polygon>
    <polygon points="180.43 179.79 180.43 73.69 199.06 73.69 199.06 161.17 235.18 161.17 235.18 149.88 253.8 179.79 180.43 179.79" fill="url(#linear-gradient-5)" stroke-width="0"></polygon>
    <polygon points="103.77 179.79 83.53 179.79 128.68 73.69 173.83 179.79 153.59 179.79 128.68 121.26 103.77 179.79" fill="url(#linear-gradient-6)" stroke-width="0"></polygon>
    <path d="M89.04,82.86c-5.87-5.87-13.84-9.17-22.15-9.17H11.86l18.62,29.91v-11.29h36.4c7.01,0,12.7,5.69,12.7,12.7s-5.69,12.7-12.7,12.7H30.49v62.08h18.62v-43.46h17.78c8.31,0,16.27-3.3,22.15-9.17,5.87-5.87,9.17-13.84,9.17-22.15s-3.3-16.27-9.17-22.15Z" fill="url(#linear-gradient-7)" stroke-width="0"></path>
  </g>
</svg>
